# xmcd
#
# Track frame offsets:
#	150
#	10727
#	22019
#	33904
#	46518
#	61755
#	94732
#	111955
#	126535
#
# Disc length: 1901 seconds
#
# Revision: 0
# Processed by: cddbd v1.5.1PL2 Copyright (c) Steve Scherf et al.
# Submitted via: dBpowerAMP V4.0
#
DISCID=6a076b09
DTITLE=The World Famous Platters - The Platters Greatest Hits
DYEAR=2002
DGENRE=Blues
TTITLE0=Only You
TTITLE1=Twilight Time
TTITLE2=Remember When
TTITLE3=Harbor Lights
TTITLE4=Love Train
TTITLE5=I'm Sorry-/ You'll Never Know-/ He's Mine-/ Red Sails In The Sunset
TTITLE6=Amazing Grace
TTITLE7=America The Beautiful
TTITLE8=Smoke Gets In Your Eyes
EXTD=
EXTT0=
EXTT1=
EXTT2=
EXTT3=
EXTT4=
EXTT5=
EXTT6=
EXTT7=
EXTT8=
PLAYORDER=
